# xmcd
#
# Track frame offsets:
#	183
#	15443
#	40195
#	54535
#	72748
#	87285
#	108725
#	127210
#	145515
#	164595
#	180633
#	197240
#	217723
#	233493
#	249320
#	263393
#	285948
#	302140
#	317738
#
# Disc length: 4611 seconds
#
# Revision: 1
# Processed by: cddbd v1.4PL0 Copyright (c) Steve Scherf et al.
# Submitted via: audiograbber 1.81.03
#
DISCID=07120113
DTITLE=Mink De Ville - Desperate Days
DYEAR=1900
DGENRE=
TTITLE0=Harlem Nocturne
TTITLE1=Slow Drain
TTITLE2=Savior Faire
TTITLE3=Cadillac Walk
TTITLE4=Love me like you do
TTITLE5=Mixed up , shook up Girl
TTITLE6=Can't do without it
TTITLE7=Just your friends
TTITLE8=Love Emotions
TTITLE9=She's so tough
TTITLE10=You better move on
TTITLE11=Teardrops must fall
TTITLE12=Desperate Days
TTITLE13=Maybe tomorow
TTITLE14=This must be the night
TTITLE15=Lipstick Traces
TTITLE16=Spanish Stroll
TTITLE17=Bad Boy
TTITLE18=So long
EXTD=
EXTT0=
EXTT1=
EXTT2=
EXTT3=
EXTT4=
EXTT5=
EXTT6=
EXTT7=
EXTT8=
EXTT9=
EXTT10=
EXTT11=
EXTT12=
EXTT13=
EXTT14=
EXTT15=
EXTT16=
EXTT17=
EXTT18=
PLAYORDER=
